HIERARCHY
ROOT Hips
{
	OFFSET -3.958830 18.904000 13.208200
	CHANNELS 6 Xposition Yposition Zposition Zrotation Yrotation Xrotation 
	JOINT LHipJoint
	{
		OFFSET 0.000000 0.000000 0.000000
		CHANNELS 3 Zrotation Yrotation Xrotation
		JOINT LeftUpLeg
		{
			OFFSET 1.800000 -1.400000 0.085000
			CHANNELS 3 Zrotation Yrotation Xrotation
			JOINT LeftLeg
			{
				OFFSET 2.215000 -6.000000 0.000000
				CHANNELS 3 Zrotation Yrotation Xrotation
				JOINT LeftFoot
				{
					OFFSET 2.500000 -6.900000 0.000000
					CHANNELS 3 Zrotation Yrotation Xrotation
					JOINT LeftToeBase
					{
						OFFSET 0.200000 -0.500000 1.950000
						CHANNELS 3 Zrotation Yrotation Xrotation
						End Site
						{
							OFFSET 0.000000 0.000000 0.000000
						}
					}
				}
			}
		}
	}
	JOINT RHipJoint
	{
		OFFSET 0.000000 0.000000 0.000000
		CHANNELS 3 Zrotation Yrotation Xrotation
		JOINT RightUpLeg
		{
			OFFSET -1.800000 -1.400000 0.085000
			CHANNELS 3 Zrotation Yrotation Xrotation
			JOINT RightLeg
			{
				OFFSET -2.215000 -6.000000 0.000000
				CHANNELS 3 Zrotation Yrotation Xrotation
				JOINT RightFoot
				{
					OFFSET -2.500000 -6.900000 0.000000
					CHANNELS 3 Zrotation Yrotation Xrotation
					JOINT RightToeBase
					{
						OFFSET -0.200000 -0.500000 1.950000
						CHANNELS 3 Zrotation Yrotation Xrotation
						End Site
						{
							OFFSET 0.000000 0.000000 0.000000
						}
					}
				}
			}
		}
	}
	JOINT LowerBack
	{
		OFFSET 0.000000 0.000000 0.000000
		CHANNELS 3 Zrotation Yrotation Xrotation
		JOINT Spine
		{
			OFFSET -0.087000 1.940000 -0.288900
			CHANNELS 3 Zrotation Yrotation Xrotation
			JOINT Spine1
			{
				OFFSET 0.000000 1.950000 0.060000
				CHANNELS 3 Zrotation Yrotation Xrotation
				JOINT Neck
				{
					OFFSET 0.000000 0.000000 0.000000
					CHANNELS 3 Zrotation Yrotation Xrotation
					JOINT Neck1
					{
						OFFSET 0.000000 1.600000 0.340000
						CHANNELS 3 Zrotation Yrotation Xrotation
						JOINT Head
						{
							OFFSET 0.000000 1.667000 -0.240000
							CHANNELS 3 Zrotation Yrotation Xrotation
							End Site
							{
								OFFSET 0.000000 0.000000 0.000000
							}
						}
					}
				}
				JOINT LeftShoulder
				{
					OFFSET 0.000000 0.000000 0.000000
					CHANNELS 3 Zrotation Yrotation Xrotation
					JOINT LeftArm
					{
						OFFSET 2.700000 1.550000 -0.730000
						CHANNELS 3 Zrotation Yrotation Xrotation
						JOINT LeftForeArm
						{
							OFFSET 5.450000 0.000000 0.000000
							CHANNELS 3 Zrotation Yrotation Xrotation
							JOINT LeftHand
							{
								OFFSET 3.450000 0.000000 0.000000
								CHANNELS 3 Zrotation Yrotation Xrotation
								JOINT LeftHandIndex1
								{
									OFFSET 0.750000 0.000000 0.000000
									CHANNELS 3 Zrotation Yrotation Xrotation
									End Site
									{
										OFFSET 0.000000 0.000000 0.000000
									}
								}
							}
						}
					}
				}
				JOINT RightShoulder
				{
					OFFSET 0.000000 0.000000 0.000000
					CHANNELS 3 Zrotation Yrotation Xrotation
					JOINT RightArm
					{
						OFFSET -2.700000 1.550000 -0.730000
						CHANNELS 3 Zrotation Yrotation Xrotation
						JOINT RightForeArm
						{
							OFFSET -5.450000 0.000000 0.000000
							CHANNELS 3 Zrotation Yrotation Xrotation
							JOINT RightHand
							{
								OFFSET -3.450000 0.000000 0.000000
								CHANNELS 3 Zrotation Yrotation Xrotation
								JOINT RightHandIndex1
								{
									OFFSET -0.750000 0.000000 0.000000
									CHANNELS 3 Zrotation Yrotation Xrotation
									End Site
									{
										OFFSET 0.000000 0.000000 0.000000
									}
								}
							}
						}
					}
				}
			}
		}
	}
}
MOTION
Frames: 13
Frame Time: 0.016667
0.274170 17.165690 -0.536800 -5.748337 -20.775160 20.498902 -15.565755 13.477141 4.014449 2.515662 -4.167039 -32.367671 -2.450287 2.865392 3.162427 -1.234812 3.016392 3.903434 -1.150430 -1.653640 -1.369340 17.768651 -9.017592 3.693687 -8.213863 4.357003 -17.722869 19.977140 -3.244635 -3.666872 0.094985 -3.249771 3.788619 -0.825560 1.421400 -0.035670 -2.159041 -5.024179 -8.799409 2.813952 3.922568 29.524985 6.018309 11.400204 -30.962201 3.235398 -13.162747 -15.882034 -28.276043 13.765888 32.103631 4.446090 3.182500 -3.084570 1.214074 13.663644 3.105243 -45.661827 25.842315 -9.662027 7.451182 -5.845642 -1.173613 -4.418996 1.641564 1.136180 0.369440 -0.542010 0.222560 -4.138934 5.047829 11.968530 43.364406 -8.526954 -9.440684 -124.109053 35.979125 -61.775160 1.610990 -0.786100 -1.125730 0.953780 1.165440 -0.010410 
0.335740 17.159760 -0.480910 -5.422302 -21.150752 21.796445 -15.538401 13.353430 4.088737 2.282161 -4.430947 -32.225479 -3.873371 2.826101 1.772384 -1.260344 3.095172 3.891697 -1.158940 -1.665830 -1.366800 17.804333 -8.927027 3.776791 -8.298616 4.429002 -17.927333 19.409882 -2.696349 -5.709930 0.107319 -3.237497 3.787928 -0.803910 1.449400 -0.055790 -2.270839 -4.979073 -8.887036 5.158567 2.731926 28.309035 3.990198 11.010863 -32.046565 3.111818 -13.201641 -15.682471 -28.542117 13.201618 31.550137 4.220850 3.002760 -1.525960 1.985213 14.028248 2.819473 -37.516390 26.284664 -8.111233 4.894174 -3.940744 -1.283441 -4.459614 1.621790 1.118660 0.394220 -0.577740 0.216540 -4.614835 4.310430 11.667525 39.947538 -9.995920 -8.859377 -122.423314 33.931378 -54.093355 1.601652 -0.860010 -1.160300 0.974380 1.177790 -0.019060 
0.398760 17.139970 -0.416830 -4.950136 -21.061425 22.346804 -15.513159 13.319280 4.148871 2.036508 -4.546345 -31.670871 -5.363423 2.846835 0.701786 -1.316242 3.262320 3.856440 -1.162070 -1.689160 -1.346360 17.827806 -8.885437 3.798280 -8.229127 4.384853 -17.695302 18.842769 -2.489469 -6.660069 0.119674 -3.242903 3.782518 -0.773340 1.492170 -0.065090 -2.354373 -5.018365 -8.937630 7.852885 1.505411 26.948789 2.209722 10.613951 -32.234422 2.855281 -13.272103 -15.429346 -29.088588 12.702919 31.743370 3.616980 2.614850 -0.469370 2.650326 14.025727 2.485717 -30.302941 25.766268 -6.546717 1.965180 -2.447802 -1.595457 -4.512773 1.571912 1.121530 0.431390 -0.613640 0.207760 -4.876314 4.005975 11.297086 36.235021 -10.818460 -8.408267 -120.070527 31.404496 -45.708154 1.583908 -0.915505 -1.213810 1.022650 1.203920 -0.042130 
0.459580 17.124360 -0.361760 -4.137456 -21.044701 22.167113 -15.490427 13.341967 4.174346 1.406549 -4.620837 -30.746631 -6.532347 2.888152 0.017263 -1.374620 3.409477 3.832107 -1.184450 -1.729430 -1.332170 17.846955 -8.868815 3.789851 -8.332540 4.196629 -17.132330 17.926899 -2.373008 -7.428137 0.126036 -3.227119 3.786962 -0.758640 1.528500 -0.090330 -2.422661 -5.112477 -8.939210 9.863679 0.434212 26.128951 0.677344 10.023339 -32.138044 2.831658 -13.405783 -15.499444 -30.116321 12.542908 32.111934 3.286240 2.200950 -0.823630 3.351654 13.423224 2.513122 -24.772509 25.398573 -5.348806 -0.076587 -1.917075 -1.847321 -4.536205 1.497898 1.151240 0.444770 -0.634760 0.190340 -5.477382 4.354027 11.127402 33.290480 -11.242570 -8.309564 -117.340881 29.141585 -38.497925 1.586850 -0.917212 -1.279400 1.095190 1.240400 -0.065410 
0.516110 17.112190 -0.302990 -3.417352 -20.989404 21.839044 -15.463461 13.405523 4.203032 0.653451 -4.641259 -29.521846 -7.433656 2.866715 -0.907332 -1.449009 3.557260 3.795342 -1.201060 -1.795460 -1.310140 17.865977 -8.878054 3.753096 -8.344359 4.004603 -16.659018 16.952950 -2.413417 -7.614568 0.138121 -3.181740 3.796481 -0.762530 1.539000 -0.105650 -2.492824 -5.242049 -8.919374 12.219245 -0.817602 25.144356 -1.365526 9.331984 -32.131015 3.064228 -13.538370 -15.862534 -31.399429 12.278005 32.835368 3.061390 1.372240 -1.588620 3.890439 12.563539 2.605904 -19.871087 25.188024 -4.257966 -0.443180 -2.225796 -1.955877 -4.541682 1.449936 1.214810 0.435320 -0.653870 0.164230 -6.351003 5.084944 11.275031 31.486173 -11.997201 -8.540415 -115.068032 27.404493 -33.292179 1.586673 -0.910309 -1.344000 1.140250 1.287550 -0.107960 
0.565090 17.102750 -0.243150 -3.069404 -21.810622 21.607917 -15.436071 13.490367 4.219054 0.015543 -4.497695 -28.222109 -7.941702 2.824098 -1.861394 -1.539089 3.769434 3.743888 -1.276600 -1.936310 -1.343130 17.887935 -8.930811 3.683191 -7.797569 3.911310 -16.645906 15.760893 -2.578488 -7.090595 0.184667 -3.083082 3.817175 -0.796980 1.616240 -0.082310 -2.560983 -5.323899 -8.855628 14.422975 -1.574880 24.184428 -3.303484 8.830299 -32.031878 3.334061 -13.651912 -16.247137 -32.306828 12.242632 32.896169 2.849780 0.736220 -1.709050 4.206759 11.574179 2.806633 -15.920582 25.308333 -3.243973 1.034074 -3.308680 -1.934519 -4.620951 1.388483 1.277080 0.468900 -0.691420 0.134920 -7.052543 6.028523 11.460266 29.185311 -12.304798 -8.592813 -112.997282 26.401573 -29.861842 1.560834 -0.862035 -1.427040 1.196590 1.392830 -0.136810 
0.603890 17.092990 -0.187780 -2.392088 -22.043522 21.133739 -15.402644 13.553247 4.236778 -0.766496 -4.463181 -26.934444 -8.407615 2.797157 -2.522135 -1.658293 4.026037 3.655764 -1.333170 -2.104800 -1.313070 17.919267 -8.997258 3.604901 -7.437076 3.713053 -16.424443 14.567912 -2.799407 -6.530949 0.214442 -3.020694 3.766090 -0.834590 1.683660 -0.015660 -2.651383 -5.363848 -8.773501 16.495819 -2.492996 22.782480 -5.058389 8.028724 -31.453917 3.415954 -13.473329 -16.494217 -32.549957 12.949404 33.238252 2.668300 0.989440 -0.836450 4.812899 10.538141 2.886329 -12.105867 23.756052 -2.071553 1.265814 -2.345850 -2.125408 -4.736314 1.357348 1.355570 0.498910 -0.720730 0.088750 -7.836609 6.479179 11.555762 27.671495 -12.671834 -8.582440 -111.835224 26.181684 -28.344932 1.536035 -0.832529 -1.510910 1.218020 1.508570 -0.190360 
0.630950 17.093480 -0.137770 -2.158940 -22.926974 20.810178 -15.351569 13.590672 4.226020 -1.319216 -4.349898 -25.909670 -8.537202 2.813138 -2.675001 -1.748405 4.189602 3.576093 -1.348470 -2.197330 -1.259010 17.972372 -9.111175 3.525046 -6.553356 3.553040 -16.346286 13.371449 -3.000731 -5.598474 0.256381 -2.936977 3.732517 -0.837180 1.705510 0.034460 -2.794692 -5.256675 -8.648176 18.532360 -3.200508 22.006639 -7.078406 7.325717 -31.038195 3.184718 -13.256735 -16.354872 -32.307716 13.936832 33.462104 2.590990 1.738580 0.327340 5.796110 10.678213 2.620685 -9.008362 22.180698 -1.250197 1.985144 -2.952150 -2.174988 -4.816467 1.375951 1.388380 0.521780 -0.743600 0.045380 -8.684804 5.865513 11.354769 26.917737 -12.072647 -8.144915 -111.338100 25.821587 -27.089121 1.535447 -0.845379 -1.558620 1.204110 1.574520 -0.239510 
0.644980 17.093290 -0.087860 -2.220753 -25.146417 21.235742 -15.311593 13.559266 4.197591 -2.510991 -4.392461 -25.572979 -7.545020 2.682795 -2.690282 -1.762620 4.123687 3.583154 -1.347650 -2.199660 -1.246560 18.026588 -9.188510 3.520150 -5.617182 3.525050 -16.436022 12.603166 -2.953291 -5.549381 0.270611 -2.896033 3.688120 -0.821720 1.725290 0.087650 -2.937802 -5.046254 -8.553966 19.862788 -3.338161 21.310531 -8.588416 6.986609 -31.329501 2.533270 -13.190863 -16.191614 -32.031513 15.469530 33.162826 3.614060 2.625860 1.500910 9.138336 12.664737 2.141202 -9.250975 19.718716 -1.398912 4.515334 -4.141496 -2.017215 -4.910435 1.407932 1.345610 0.546560 -0.742460 0.032550 -11.163049 4.081021 11.064643 26.749492 -9.206316 -6.763341 -110.265191 26.061601 -26.062069 1.589595 -0.878650 -1.537610 1.168250 1.591690 -0.225740 
0.667960 17.098390 -0.056540 -2.443700 -28.149622 20.054907 -15.265562 13.568045 4.078887 -2.974135 -3.949266 -23.567097 -6.889706 2.655853 -2.648224 -1.798510 4.081461 3.575459 -1.225370 -2.031420 -1.206350 18.080774 -9.309664 3.506851 -5.202613 3.215767 -14.936175 11.897743 -2.952755 -5.811776 0.204807 -2.967871 3.681899 -0.720960 1.660190 0.066950 -3.079823 -4.805307 -8.403770 21.024701 -3.315223 22.126316 -9.942838 6.568525 -30.550466 1.962189 -13.279860 -16.250294 -34.045874 17.893271 34.408029 5.506010 3.184270 -0.705000 8.881958 11.624308 2.550713 -5.532050 19.140654 -0.400070 3.624171 -0.895558 -2.127492 -4.865170 1.371266 1.378640 0.506980 -0.702050 0.057150 -9.924700 4.528515 10.782417 24.108346 -7.936830 -6.048458 -108.256965 25.273911 -24.152396 1.549049 -0.878004 -1.514950 1.182230 1.533860 -0.240240 
0.668960 17.099720 -0.010080 -1.936988 -30.421190 19.580686 -15.237179 13.521757 4.039201 -3.614435 -3.880539 -22.695591 -6.807409 2.670931 -2.406068 -1.779132 4.025596 3.599735 -1.151950 -1.927190 -1.166220 18.114912 -9.365539 3.541543 -5.201998 3.028508 -14.159819 10.974789 -2.769308 -6.899020 0.153867 -3.022975 3.671590 -0.673320 1.626600 0.053540 -3.174941 -4.600895 -8.374130 21.024191 -3.044083 21.659876 -10.647364 6.326365 -30.670743 1.516159 -13.072448 -16.275265 -34.436650 18.837575 35.372534 6.097800 3.623380 -0.890230 9.123072 11.012894 2.638675 -1.397086 18.052452 0.381700 1.713434 1.558918 -2.344485 -4.825667 1.353022 1.367630 0.488440 -0.678540 0.082730 -9.317834 4.467861 10.677786 22.479906 -8.293193 -5.513086 -107.107325 25.134329 -23.009157 1.556877 -0.899918 -1.485090 1.182510 1.475690 -0.235480 
0.694200 17.106730 0.020900 -1.702810 -33.661706 18.298815 -15.212593 13.526047 3.998877 -4.005870 -3.567955 -20.978156 -6.999792 2.743828 -2.399201 -1.750937 4.005197 3.590414 -1.062880 -1.794720 -1.088710 18.131916 -9.470051 3.508760 -5.825474 2.868349 -13.612772 10.796295 -2.877727 -6.268519 0.097930 -3.021301 3.656422 -0.620380 1.522730 0.021040 -3.244931 -4.425105 -8.299373 21.021271 -2.308318 22.517121 -11.317090 6.326924 -29.968327 1.732963 -13.038258 -16.169792 -36.044398 19.212299 35.954941 5.383770 3.897400 -3.897770 6.960243 9.483571 2.599270 4.294962 19.018846 1.490347 0.412418 1.354984 -2.468127 -4.655258 1.445613 1.391960 0.415500 -0.614080 0.079420 -7.354235 5.385766 10.522129 19.449660 -9.939378 -5.721925 -106.231932 24.530195 -21.937869 1.575987 -0.889006 -1.446600 1.185190 1.407480 -0.246910 
0.707390 17.099990 0.045290 -1.171414 -35.970730 16.436284 -15.184387 13.550008 3.928096 -3.882780 -3.226768 -19.061063 -7.475895 2.960810 -1.703790 -1.824549 4.186228 3.531532 -1.016890 -1.778730 -0.999140 18.148610 -9.565556 3.482128 -6.811788 2.675145 -12.730488 10.956786 -3.100448 -5.783352 0.025624 -3.080014 3.604790 -0.590680 1.494050 0.023690 -3.313430 -4.290668 -8.209662 20.965364 -2.038595 23.531638 -11.833983 5.979978 -29.208716 1.712011 -12.775341 -15.771786 -37.083270 20.273585 36.822799 4.921200 4.576460 -8.150550 5.832233 8.733087 2.177270 8.100198 18.438841 2.300233 0.880406 -0.091848 -2.456246 -4.570637 1.449410 1.509620 0.366870 -0.555730 0.071660 -6.279935 5.219363 10.081476 17.503848 -10.291128 -5.794120 -104.770873 24.152738 -20.590652 1.553653 -0.800646 -1.499880 1.259330 1.408780 -0.293360 
